<svg width="20" height="25" viewBox="0 0 20 25" fill="none" xmlns="http://www.w3.org/2000/svg">
<path d="M16.6536 12.9428C16.6656 12.0103 16.9153 11.0952 17.3788 10.2842C17.8424 9.47257 18.505 8.79082 19.3047 8.30256C18.7969 7.58169 18.1265 6.98795 17.3465 6.56954C16.5671 6.15043 15.6998 5.91852 14.8135 5.89058C12.9228 5.6943 11.0918 7.01449 10.1281 7.01449C9.14688 7.01449 7.66411 5.91084 6.06668 5.94297C5.03408 5.9758 4.02751 6.27477 3.14544 6.80843C2.26337 7.3428 1.53535 8.0951 1.03312 8.99199C-1.14251 12.7339 0.480247 18.2341 2.56514 21.2586C3.60828 22.7402 4.82728 24.395 6.4226 24.3363C7.98345 24.272 8.56658 23.3472 10.4517 23.3472C12.3185 23.3472 12.8651 24.3363 14.4928 24.2986C16.1683 24.272 17.2241 22.8107 18.2292 21.3159C18.9791 20.2604 19.5559 19.0939 19.9385 17.8589C18.9657 17.4503 18.135 16.7658 17.5512 15.8919C16.9666 15.0174 16.655 13.992 16.6536 12.9428ZM13.579 3.90121C14.4921 2.81222 14.9422 1.4131 14.8332 0C13.4376 0.14599 12.149 0.808183 11.2233 1.85526C10.771 2.36657 10.4243 2.96171 10.2034 3.60644C9.98253 4.25117 9.89179 4.93222 9.9361 5.61187C10.6339 5.61886 11.3246 5.46868 11.9556 5.17251C12.5865 4.87634 13.1415 4.44116 13.579 3.90121Z" fill="white"/>
</svg>
