<svg width="16" height="16" viewBox="0 0 16 16" fill="none" xmlns="http://www.w3.org/2000/svg">
<path d="M7.99967 1.33301C4.32367 1.33301 1.33301 4.32367 1.33301 7.99967C1.33301 11.6757 4.32367 14.6663 7.99967 14.6663C11.6757 14.6663 14.6663 11.6757 14.6663 7.99967C14.6663 4.32367 11.6757 1.33301 7.99967 1.33301ZM2.66634 7.99967C2.66634 7.40034 2.77034 6.82501 2.95367 6.28701L3.99967 7.33301L5.33301 8.66634V9.99967L6.66634 11.333L7.33301 11.9997V13.287C4.70701 12.957 2.66634 10.7143 2.66634 7.99967ZM12.2197 11.2483C11.7843 10.8977 11.1243 10.6663 10.6663 10.6663V9.99967C10.6663 9.64605 10.5259 9.30691 10.2758 9.05687C10.0258 8.80682 9.68663 8.66634 9.33301 8.66634H6.66634V6.66634C7.01996 6.66634 7.3591 6.52587 7.60915 6.27582C7.8592 6.02577 7.99967 5.68663 7.99967 5.33301V4.66634H8.66634C9.01996 4.66634 9.3591 4.52587 9.60915 4.27582C9.8592 4.02577 9.99967 3.68663 9.99967 3.33301V3.05901C11.9517 3.85167 13.333 5.76634 13.333 7.99967C13.3327 9.17612 12.9411 10.319 12.2197 11.2483Z" fill="white" fill-opacity="0.5"/>
</svg>
