<svg width="15" height="19" viewBox="0 0 15 19" fill="none" xmlns="http://www.w3.org/2000/svg">
<path d="M7.5 11.2586C5.41517 11.2797 3.78346 9.26596 4.17768 7.15851C4.57261 5.04721 6.83171 3.81281 8.74153 4.62147C9.984 5.14757 10.8171 6.42757 10.8171 7.81051C10.824 9.67864 9.31482 11.2475 7.5 11.2586ZM7.5 6.14386C6.50204 6.12291 5.69024 7.09196 5.87477 8.11485C5.99224 8.76601 6.50886 9.30875 7.13892 9.44292C8.12843 9.65364 9.08643 8.85065 9.08643 7.81051C9.09435 6.91227 8.37258 6.15402 7.5 6.14386ZM6.53947 18.6281C3.3621 16.7341 0.000519258 12.5646 0.000519258 7.81109C-0.0479437 3.57165 3.38123 0 7.5 0C11.6188 0 15.0479 3.57165 14.9995 7.81109C14.9995 11.8884 11.7601 16.4697 8.62724 18.5446C8.35076 18.8216 7.98444 18.9834 7.59892 18.9988C7.21341 19.0142 6.83599 18.8822 6.53947 18.6281ZM7.5 1.7818C4.33537 1.81051 1.71091 4.55346 1.73117 7.81109C1.73117 11.5458 4.39426 15.3277 7.52422 17.1574C9.79434 15.6775 13.2688 11.6154 13.2688 7.81109C13.2891 4.55346 10.6646 1.81051 7.5 1.7818Z" fill="white"/>
</svg>
