<svg width="16" height="15" viewBox="0 0 16 15" fill="none" xmlns="http://www.w3.org/2000/svg">
<path d="M9.99351 5.90988L6.03 2.15525C5.99745 2.12438 5.95689 2.10322 5.91296 2.0941C5.86908 2.08495 5.8235 2.08824 5.78132 2.10358C5.73915 2.11893 5.70211 2.1457 5.67431 2.18092C5.64656 2.21612 5.62909 2.2584 5.62398 2.30296L4.99971 7.72671L1.17378 6.26326C1.12674 6.24519 1.07521 6.24225 1.02644 6.25492C0.977662 6.2676 0.934061 6.29519 0.901759 6.33388C0.869458 6.37258 0.85008 6.42044 0.846312 6.47068C0.842545 6.52092 0.854618 6.57114 0.880799 6.61422L4.44403 12.5581C4.44403 12.5581 4.85708 13.6934 9.39698 12.0417C13.9369 10.39 13.5238 9.25471 13.5238 9.25471L12.4346 2.41075C12.427 2.36092 12.404 2.31467 12.3688 2.27859C12.3337 2.24252 12.288 2.21831 12.2384 2.20941C12.1888 2.20053 12.1377 2.2074 12.0922 2.22903C12.0467 2.25066 12.0091 2.28602 11.9846 2.3301L9.99351 5.90988Z" fill="#FFE500"/>
<path d="M9.99351 5.90988L6.03 2.15525C5.99745 2.12438 5.95689 2.10322 5.91296 2.0941C5.86908 2.08495 5.8235 2.08824 5.78132 2.10358C5.73915 2.11893 5.70211 2.1457 5.67431 2.18092C5.64656 2.21612 5.62909 2.2584 5.62398 2.30296L4.99971 7.72671L1.17378 6.26326C1.12674 6.24519 1.07521 6.24225 1.02644 6.25492C0.977662 6.2676 0.934061 6.29519 0.901759 6.33388C0.869458 6.37258 0.85008 6.42044 0.846312 6.47068C0.842545 6.52092 0.854618 6.57114 0.880799 6.61422L4.44403 12.5581C4.44403 12.5581 4.85708 13.6934 9.39698 12.0417C13.9369 10.39 13.5238 9.25471 13.5238 9.25471L12.4346 2.41075C12.427 2.36092 12.404 2.31467 12.3688 2.27859C12.3337 2.24252 12.288 2.21831 12.2384 2.20941C12.1888 2.20053 12.1377 2.2074 12.0922 2.22903C12.0467 2.25066 12.0091 2.28602 11.9846 2.3301L9.99351 5.90988Z" fill="#FFE500"/>
<path d="M12.2379 2.20963C12.1884 2.20087 12.1374 2.20776 12.092 2.2294C12.0466 2.25099 12.0091 2.2862 11.9846 2.3301L9.99351 5.90988L6.03 2.15525C5.99745 2.12438 5.95689 2.10322 5.91296 2.0941C5.86908 2.08495 5.8235 2.08824 5.78132 2.10358C5.73915 2.11893 5.70211 2.1457 5.67431 2.18092C5.64656 2.21612 5.62909 2.2584 5.62398 2.30296L4.99971 7.72671L1.17378 6.26326C1.12674 6.24519 1.07521 6.24225 1.02644 6.25492C0.977662 6.2676 0.934061 6.29519 0.901759 6.33388C0.869458 6.37258 0.85008 6.42044 0.846312 6.47068C0.842545 6.52092 0.854618 6.57114 0.880799 6.61422L4.44403 12.5581C4.44403 12.5581 4.85708 13.6934 9.39698 12.0417C13.9369 10.39 13.5236 9.25479 13.5236 9.25479L12.4346 2.41075C12.4269 2.36089 12.4038 2.31462 12.3685 2.27858C12.3332 2.24249 12.2875 2.21838 12.2379 2.20963ZM12.7648 9.30898C12.6706 9.47788 12.0991 10.2505 9.13734 11.3281C6.17554 12.4056 5.24096 12.1809 5.0605 12.1119L2.5806 7.97539C2.56039 7.94156 2.5512 7.90227 2.55434 7.86301C2.55747 7.82375 2.57274 7.78642 2.59803 7.75621C2.62335 7.72604 2.65742 7.70448 2.69553 7.69453C2.73366 7.68463 2.77391 7.68678 2.81074 7.70081L5.41274 8.69612C5.43971 8.70646 5.46872 8.71051 5.4975 8.70786C5.52625 8.70528 5.55407 8.69614 5.57879 8.68116C5.60349 8.66612 5.62439 8.64569 5.63996 8.62133C5.65554 8.59703 5.66536 8.56945 5.66864 8.5407L6.21547 3.79245C6.2195 3.75751 6.23313 3.72432 6.25497 3.69671C6.27675 3.66911 6.3058 3.64809 6.33886 3.63607C6.37193 3.62404 6.4077 3.62147 6.44212 3.62862C6.47659 3.63575 6.50836 3.65241 6.5339 3.6766L10.0039 6.96371C10.0249 6.98356 10.0501 6.99833 10.0777 7.00693C10.1052 7.01554 10.1344 7.01769 10.163 7.01328C10.1915 7.0089 10.2186 6.99805 10.2424 6.98153C10.2661 6.96504 10.2857 6.94335 10.2998 6.91814L11.6542 4.48367C11.6733 4.44921 11.7028 4.42164 11.7384 4.40472C11.7739 4.38781 11.8139 4.38242 11.8527 4.38932C11.8915 4.39623 11.9272 4.415 11.9548 4.44314C11.9824 4.47129 12.0006 4.50732 12.0067 4.54625L12.7648 9.30898Z" fill="#FFF48C"/>
<path d="M3.88184 11.622L4.44209 12.5576C4.44209 12.5576 4.85514 13.6929 9.39504 12.0412C13.9349 10.3895 13.5219 9.25422 13.5219 9.25422L13.3499 8.17731C13.0353 8.66883 12.0296 9.53982 8.89888 10.6788C5.76816 11.8178 4.43876 11.7964 3.88184 11.622Z" fill="#EBCB00"/>
<path d="M4.81279 11.7071C4.49908 11.7341 4.18306 11.7062 3.87891 11.6246L4.43916 12.5603C4.43916 12.5603 4.58323 12.9563 5.63615 12.9402L4.81279 11.7071Z" fill="#FFE500"/>
<path d="M12.9683 10.2151C13.6473 9.61378 13.5183 9.25923 13.5183 9.25923L13.3464 8.18231C13.181 8.42036 12.9772 8.6292 12.7433 8.80028L12.9683 10.2151Z" fill="#FFE500"/>
<path d="M3.88184 11.622C4.43876 11.7964 5.7691 11.8177 8.89982 10.6787C12.0306 9.53972 13.0362 8.66852 13.3508 8.17699" stroke="black" stroke-width="0.446066" stroke-linecap="round" stroke-linejoin="round"/>
<path d="M9.99351 5.90988L6.03 2.15525C5.99745 2.12438 5.95689 2.10322 5.91296 2.0941C5.86908 2.08495 5.8235 2.08824 5.78132 2.10358C5.73915 2.11893 5.70211 2.1457 5.67431 2.18092C5.64656 2.21612 5.62909 2.2584 5.62398 2.30296L4.99971 7.72671L1.17378 6.26326C1.12674 6.24519 1.07521 6.24225 1.02644 6.25492C0.977662 6.2676 0.934061 6.29519 0.901759 6.33388C0.869458 6.37258 0.85008 6.42044 0.846312 6.47068C0.842545 6.52092 0.854618 6.57114 0.880799 6.61422L4.44403 12.5581C4.44403 12.5581 4.85708 13.6934 9.39698 12.0417C13.9369 10.39 13.5238 9.25471 13.5238 9.25471L12.4346 2.41075C12.427 2.36092 12.404 2.31467 12.3688 2.27859C12.3337 2.24252 12.288 2.21831 12.2384 2.20941C12.1888 2.20053 12.1377 2.2074 12.0922 2.22903C12.0467 2.25066 12.0091 2.28602 11.9846 2.3301L9.99351 5.90988Z" stroke="black" stroke-width="0.7" stroke-linecap="round" stroke-linejoin="round"/>
</svg>
