<svg width="17" height="15" viewBox="0 0 17 15" fill="none" xmlns="http://www.w3.org/2000/svg">
<path d="M11.6617 9.99995L12.5893 9.07235C12.7342 8.92741 12.9864 9.02887 12.9864 9.23758V13.4524C12.9864 14.2205 12.3631 14.8438 11.595 14.8438H1.3914C0.62323 14.8438 0 14.2205 0 13.4524V3.24877C0 2.4806 0.62323 1.85737 1.3914 1.85737H9.31947C9.52528 1.85737 9.62963 2.10666 9.4847 2.2545L8.5571 3.1821C8.51362 3.22558 8.45564 3.24877 8.39187 3.24877H1.3914V13.4524H11.595V10.1623C11.595 10.1014 11.6182 10.0434 11.6617 9.99995ZM16.2011 4.15028L8.58898 11.7624L5.96852 12.0523C5.20905 12.1363 4.56263 11.4957 4.64669 10.7304L4.93656 8.10997L12.5487 0.49786C13.2125 -0.165953 14.285 -0.165953 14.9459 0.49786L16.1982 1.75012C16.862 2.41393 16.862 3.48937 16.2011 4.15028ZM13.3371 5.04599L11.653 3.36182L6.26709 8.75059L6.05548 10.6435L7.94836 10.4319L13.3371 5.04599ZM15.2155 2.73569L13.9633 1.48343C13.8444 1.36458 13.6502 1.36458 13.5342 1.48343L12.6385 2.37915L14.3227 4.06332L15.2184 3.1676C15.3344 3.04586 15.3344 2.85454 15.2155 2.73569Z" fill="white"/>
</svg>
