<svg width="15" height="13" viewBox="0 0 15 13" fill="none" xmlns="http://www.w3.org/2000/svg">
<path d="M2.73409 10.4877C2.73409 8.79569 4.79659 7.41889 7.33219 7.41889C9.86736 7.41889 11.9299 8.79033 11.9299 10.477C11.9299 13.6224 2.73409 13.6116 2.73409 10.4877ZM7.33219 8.79033C5.51719 8.79033 4.10909 9.70285 4.10909 10.4877C4.10909 11.6713 10.5549 11.808 10.5549 10.477C10.5549 9.69659 9.14673 8.79033 7.33219 8.79033ZM7.33219 6.38938H7.31429C6.46559 6.38702 5.65251 6.04878 5.05365 5.44895C4.45478 4.84912 4.11908 4.03675 4.12027 3.19023C4.12145 2.34372 4.45942 1.53228 5.05997 0.934121C5.66052 0.335963 6.47454 0 7.32324 0C8.17195 0 8.98596 0.335963 9.5865 0.934121C10.187 1.53228 10.525 2.34372 10.5262 3.19023C10.5274 4.03675 10.1917 4.84912 9.59284 5.44895C8.99397 6.04878 8.1809 6.38702 7.33219 6.38938ZM7.33219 1.38976C6.97249 1.38981 6.62088 1.49623 6.32181 1.69559C6.02275 1.89494 5.78965 2.17825 5.65202 2.50973C5.51439 2.8412 5.47839 3.20594 5.54857 3.55782C5.61876 3.9097 5.79199 4.23292 6.04634 4.48661C6.30069 4.7403 6.62474 4.91308 6.97753 4.98309C7.33033 5.05309 7.69601 5.01718 8.02834 4.8799C8.36067 4.74263 8.64472 4.51014 8.84459 4.21184C9.04446 3.91355 9.15116 3.56285 9.15121 3.20407C9.15067 2.72305 8.95885 2.26189 8.61783 1.92176C8.27681 1.58163 7.81446 1.39029 7.33219 1.38976ZM11.6702 5.67955C12.2292 5.52828 12.7209 5.19365 13.0659 4.72962C13.4109 4.26559 13.5892 3.6992 13.572 3.12175C13.5549 2.54429 13.3432 1.98943 12.9713 1.5466C12.5993 1.10378 12.0886 0.798799 11.5216 0.680826C11.3436 0.645974 11.159 0.68269 11.008 0.782989C10.857 0.883289 10.7519 1.03904 10.7155 1.21631C10.6792 1.39358 10.7145 1.57799 10.8139 1.72939C10.9132 1.88079 11.0685 1.98689 11.2459 2.02459C11.5102 2.07973 11.7481 2.22202 11.9213 2.42851C12.0946 2.635 12.1931 2.89366 12.201 3.16281C12.2088 3.43195 12.1256 3.69591 11.9647 3.9121C11.8038 4.1283 11.5745 4.28415 11.314 4.35453C11.1378 4.40166 10.9876 4.51666 10.8964 4.67422C10.8053 4.83179 10.7806 5.01903 10.8279 5.19474C10.8751 5.37045 10.9904 5.52025 11.1484 5.61118C11.3064 5.7021 11.4941 5.72668 11.6702 5.67955ZM13.2977 10.7457C15.663 10.1896 14.8131 6.96259 11.8699 6.96259C11.6875 6.96259 11.5127 7.03485 11.3837 7.16344C11.2548 7.29204 11.1824 7.46645 11.1824 7.64831C11.1824 7.83018 11.2548 8.0046 11.3837 8.1332C11.5127 8.2618 11.6875 8.33404 11.8699 8.33404C12.9439 8.33404 13.7581 9.23033 12.9826 9.40996C12.8057 9.45229 12.6528 9.56278 12.5574 9.71727C12.462 9.87176 12.4318 10.0577 12.4735 10.2343C12.5151 10.4109 12.6252 10.5639 12.7797 10.6597C12.9342 10.7556 13.1204 10.7865 13.2977 10.7457ZM3.35044 4.35456C3.09012 4.28398 2.86117 4.1281 2.70044 3.91201C2.5397 3.69592 2.45651 3.43218 2.46426 3.16322C2.47201 2.89427 2.57024 2.63573 2.74315 2.4292C2.91607 2.22268 3.15361 2.08018 3.41756 2.02462C3.59584 1.98789 3.75224 1.88213 3.85245 1.73055C3.95266 1.57896 3.98851 1.39393 3.95213 1.21602C3.91574 1.03811 3.8101 0.881864 3.65837 0.781538C3.50664 0.681212 3.32121 0.645003 3.14275 0.680854C2.57558 0.798685 2.06473 1.10365 1.69263 1.54656C1.32053 1.98947 1.10889 2.5445 1.09182 3.1221C1.07476 3.6997 1.25327 4.2662 1.59856 4.7302C1.94386 5.1942 2.43582 5.52864 2.99505 5.67958C3.17061 5.72476 3.35695 5.69895 3.51353 5.60777C3.6701 5.5166 3.78423 5.36742 3.83108 5.19273C3.87793 5.01803 3.85372 4.83195 3.7637 4.67498C3.67369 4.518 3.52516 4.40285 3.35044 4.35456ZM1.68137 9.40999C0.918189 9.23271 1.70486 8.33408 2.79363 8.33408C2.97597 8.33408 3.15083 8.26184 3.27976 8.13324C3.40869 8.00464 3.48113 7.83022 3.48113 7.64836C3.48113 7.46649 3.40869 7.29207 3.27976 7.16347C3.15083 7.03487 2.97597 6.96263 2.79363 6.96263C-0.150462 6.96263 -0.996712 10.1923 1.36716 10.7457C1.54408 10.7855 1.72958 10.7539 1.88329 10.6579C2.037 10.5619 2.14648 10.4093 2.1879 10.2332C2.22933 10.0571 2.19933 9.87175 2.10447 9.71759C2.0096 9.56343 1.85755 9.45287 1.68137 9.40999Z" fill="white"/>
</svg>
