<svg width="18" height="18" viewBox="0 0 18 18" fill="none" xmlns="http://www.w3.org/2000/svg">
<path d="M14.2987 8.89843L11.8932 11.2695M14.2987 8.89843L16.35 6.87563C16.4768 6.75058 16.5774 6.60213 16.646 6.43875C16.7147 6.27536 16.75 6.10025 16.75 5.92341C16.75 5.74657 16.7147 5.57146 16.646 5.40807C16.5774 5.24469 16.4768 5.09624 16.35 4.97119C16.2232 4.84614 16.0727 4.74695 15.907 4.67928C15.7413 4.6116 15.5637 4.57677 15.3844 4.57677C15.205 4.57677 15.0275 4.6116 14.8618 4.67928C14.6961 4.74695 14.5456 4.84614 14.4187 4.97119M14.2987 8.89843C14.4249 8.77149 14.5753 8.67048 14.7413 8.60122C14.9072 8.53197 15.0855 8.49585 15.2657 8.49495C15.446 8.49405 15.6246 8.5284 15.7913 8.59599C15.9579 8.66359 16.1094 8.7631 16.2368 8.88877C16.3643 9.01444 16.4652 9.16378 16.5337 9.32815C16.6023 9.49251 16.6371 9.66865 16.6362 9.84638C16.6353 10.0241 16.5987 10.1999 16.5284 10.3636C16.4582 10.5272 16.3558 10.6756 16.227 10.8L11.9769 14.9911C11.4113 15.5487 10.74 15.9911 10.0011 16.2929C9.26225 16.5947 8.47034 16.75 7.67059 16.75C6.87084 16.75 6.07892 16.5947 5.34005 16.2929C4.60118 15.9911 3.92983 15.5487 3.36432 14.9911L2.53396 14.1713C1.58236 13.233 0.972711 12.0104 0.800236 10.6943C0.627762 9.37828 0.902179 8.04297 1.58062 6.89697L3.77163 3.19967C3.91007 2.96875 4.12849 2.79497 4.38664 2.71038C4.64479 2.62579 4.92525 2.63608 5.17631 2.73936C5.42736 2.84264 5.63209 3.03195 5.75273 3.27237C5.87338 3.5128 5.90181 3.78813 5.83278 4.04759L5.17656 6.46428C5.17656 6.46816 5.17951 6.46816 5.17951 6.46816L10.5582 1.16426C10.684 1.03495 10.8347 0.931716 11.0015 0.860594C11.1683 0.789471 11.3478 0.751896 11.5296 0.75007C11.7113 0.748244 11.8915 0.782203 12.0598 0.849958C12.228 0.917713 12.3809 1.0179 12.5093 1.14465C12.6378 1.2714 12.7393 1.42216 12.8079 1.5881C12.8766 1.75403 12.9109 1.93181 12.909 2.111C12.907 2.29019 12.8688 2.4672 12.7966 2.63165C12.7244 2.7961 12.6196 2.94469 12.4884 3.0687M14.4187 4.97119L9.96195 9.36702M14.4187 4.97119L15.7646 3.64692C16.012 3.39274 16.1484 3.05311 16.1448 2.70086C16.1412 2.34861 15.9977 2.0118 15.7452 1.76264C15.4926 1.51349 15.1511 1.37184 14.7939 1.36807C14.4367 1.3643 14.0922 1.49871 13.8343 1.74248L12.4884 3.0687M12.4884 3.0687L8.03166 7.46258" stroke="white" stroke-width="1.5" stroke-linecap="square"/>
</svg>
