<svg width="17" height="16" viewBox="0 0 17 16" fill="none" xmlns="http://www.w3.org/2000/svg">
<path d="M11.1557 8.39889L10.3926 2.44662C10.3864 2.39771 10.3666 2.35149 10.3355 2.31318C10.3045 2.27488 10.2634 2.24598 10.2169 2.22971C10.1703 2.21344 10.1201 2.21048 10.072 2.22113C10.0239 2.2318 9.97962 2.25564 9.94429 2.29003L5.64134 6.4729L3.40215 2.56669C3.37468 2.51859 3.33285 2.48025 3.28252 2.45713C3.23218 2.434 3.17588 2.42717 3.12148 2.43764C3.06708 2.44812 3.0173 2.47538 2.97916 2.51553C2.94101 2.55568 2.91637 2.60683 2.9087 2.6617L1.80869 10.1992C1.80869 10.1992 1.37083 11.4529 6.38398 13.2038C11.3971 14.9547 11.835 13.7011 11.835 13.7011L15.6669 7.11773C15.6951 7.07001 15.7077 7.01465 15.7028 6.95948C15.698 6.90432 15.676 6.85198 15.6399 6.80992C15.6038 6.76784 15.5555 6.73814 15.5018 6.7249C15.448 6.71167 15.3914 6.71563 15.3399 6.73616L11.1557 8.39889Z" fill="#FFE500"/>
<path d="M11.1557 8.39889L10.3926 2.44662C10.3864 2.39771 10.3666 2.35149 10.3355 2.31318C10.3045 2.27488 10.2634 2.24598 10.2169 2.22971C10.1703 2.21344 10.1201 2.21048 10.072 2.22113C10.0239 2.2318 9.97962 2.25564 9.94429 2.29003L5.64134 6.4729L3.40215 2.56669C3.37468 2.51859 3.33285 2.48025 3.28252 2.45713C3.23218 2.434 3.17588 2.42717 3.12148 2.43764C3.06708 2.44812 3.0173 2.47538 2.97916 2.51553C2.94101 2.55568 2.91637 2.60683 2.9087 2.6617L1.80869 10.1992C1.80869 10.1992 1.37083 11.4529 6.38398 13.2038C11.3971 14.9547 11.835 13.7011 11.835 13.7011L15.6669 7.11773C15.6951 7.07001 15.7077 7.01465 15.7028 6.95948C15.698 6.90432 15.676 6.85198 15.6399 6.80992C15.6038 6.76784 15.5555 6.73814 15.5018 6.7249C15.448 6.71167 15.3914 6.71563 15.3399 6.73616L11.1557 8.39889Z" fill="#FFE500"/>
<path d="M15.6393 6.80969C15.6032 6.76783 15.555 6.73823 15.5014 6.7251C15.4477 6.7119 15.3913 6.71579 15.3399 6.73616L11.1557 8.39889L10.3926 2.44661C10.3864 2.39771 10.3666 2.35149 10.3355 2.31318C10.3045 2.27488 10.2634 2.24598 10.2169 2.22971C10.1703 2.21344 10.1201 2.21048 10.072 2.22113C10.0239 2.2318 9.97962 2.25564 9.94429 2.29003L5.64134 6.4729L3.40215 2.56669C3.37468 2.51859 3.33285 2.48025 3.28252 2.45713C3.23218 2.434 3.17588 2.42717 3.12148 2.43764C3.06708 2.44812 3.0173 2.47538 2.97916 2.51553C2.94101 2.55568 2.91637 2.60683 2.9087 2.6617L1.80869 10.1992C1.80869 10.1992 1.37083 11.4529 6.38398 13.2038C11.3971 14.9547 11.8348 13.701 11.8348 13.701L15.6669 7.11773C15.695 7.06993 15.7075 7.01447 15.7026 6.95926C15.6976 6.90399 15.6755 6.85167 15.6393 6.80969ZM11.1511 13.2195C10.9535 13.2978 9.92977 13.5581 6.65922 12.4158C3.38866 11.2735 2.74937 10.4323 2.64372 10.2481L3.40914 5.0024C3.41546 4.95956 3.43496 4.91972 3.46493 4.88847C3.49489 4.85723 3.53385 4.83608 3.57639 4.82795C3.61892 4.81987 3.66292 4.82521 3.70228 4.84324C3.74162 4.86133 3.77439 4.89115 3.79598 4.9287L5.31883 7.58532C5.33459 7.61289 5.35648 7.63651 5.38282 7.65426C5.40908 7.67205 5.43912 7.68362 5.47058 7.68805C5.50206 7.69243 5.53406 7.68957 5.56425 7.67966C5.59442 7.66981 5.62195 7.65316 5.64474 7.63097L9.41205 3.96926C9.43977 3.94231 9.47445 3.92355 9.51224 3.91522C9.54997 3.90688 9.58932 3.90919 9.62583 3.92194C9.66234 3.93469 9.69457 3.95738 9.7189 3.9874C9.74329 4.01744 9.75875 4.05372 9.76366 4.09207L10.4317 9.30318C10.4358 9.33469 10.447 9.3648 10.4645 9.39129C10.482 9.41778 10.5053 9.4399 10.5327 9.45602C10.56 9.47211 10.5907 9.48174 10.6224 9.48419C10.654 9.48661 10.6858 9.48182 10.7153 9.47012L13.5611 8.3396C13.6014 8.32359 13.6456 8.32058 13.6877 8.33094C13.7297 8.34127 13.7675 8.3645 13.7957 8.39735C13.8239 8.4302 13.8413 8.47102 13.8452 8.51416C13.8491 8.5573 13.8395 8.60061 13.8177 8.63803L11.1511 13.2195Z" fill="#FFF48C"/>
<path d="M1.98084 9.01172L1.80714 10.1978C1.80714 10.1978 1.36928 11.4514 6.38242 13.2024C11.3956 14.9533 11.8334 13.6996 11.8334 13.6996L12.4359 12.6633C11.8263 12.8629 10.3645 12.905 6.90745 11.6976C3.45037 10.4902 2.33363 9.54748 1.98084 9.01172Z" fill="#EBCB00"/>
<path d="M2.71405 9.73061C2.42826 9.53541 2.17866 9.29189 1.97644 9.01099L1.80275 10.197C1.80275 10.197 1.65003 10.6343 2.55747 11.3528L2.71405 9.73061Z" fill="#FFE500"/>
<path d="M10.6952 14.1319C11.6913 14.0921 11.8281 13.7006 11.8281 13.7006L12.4306 12.6643C12.1243 12.752 11.8056 12.7881 11.4875 12.771L10.6952 14.1319Z" fill="#FFE500"/>
<path d="M1.98084 9.01172C2.33363 9.54748 3.45124 10.4907 6.90832 11.6982C10.3654 12.9056 11.8272 12.8633 12.4369 12.6637" stroke="black" stroke-width="0.446066" stroke-linecap="round" stroke-linejoin="round"/>
<path d="M11.1557 8.39889L10.3926 2.44662C10.3864 2.39771 10.3666 2.35149 10.3355 2.31318C10.3045 2.27488 10.2634 2.24598 10.2169 2.22971C10.1703 2.21344 10.1201 2.21048 10.072 2.22113C10.0239 2.2318 9.97962 2.25564 9.94429 2.29003L5.64134 6.4729L3.40215 2.56669C3.37468 2.51859 3.33285 2.48025 3.28252 2.45713C3.23218 2.434 3.17588 2.42717 3.12148 2.43764C3.06708 2.44812 3.0173 2.47538 2.97916 2.51553C2.94101 2.55568 2.91637 2.60683 2.9087 2.6617L1.80869 10.1992C1.80869 10.1992 1.37083 11.4529 6.38398 13.2038C11.3971 14.9547 11.835 13.7011 11.835 13.7011L15.6669 7.11773C15.6951 7.07001 15.7077 7.01465 15.7028 6.95948C15.698 6.90432 15.676 6.85198 15.6399 6.80992C15.6038 6.76784 15.5555 6.73814 15.5018 6.7249C15.448 6.71167 15.3914 6.71563 15.3399 6.73616L11.1557 8.39889Z" stroke="black" stroke-width="0.7" stroke-linecap="round" stroke-linejoin="round"/>
</svg>
