<svg width="33" height="31" viewBox="0 0 33 31" fill="none" xmlns="http://www.w3.org/2000/svg">
<path d="M15.2542 17.5587L15.5694 9.55513C15.572 9.48937 15.5562 9.42415 15.5238 9.36684C15.4915 9.30956 15.4439 9.26241 15.3862 9.23067C15.3285 9.19894 15.2631 9.18392 15.1974 9.18727C15.1317 9.19064 15.0681 9.2122 15.014 9.24963L8.42314 13.8012L6.34192 8.16339C6.31643 8.094 6.26988 8.03427 6.20876 7.99267C6.14763 7.95107 6.07504 7.9296 6.00112 7.93132C5.92719 7.93305 5.85563 7.9579 5.79652 8.00229C5.73741 8.04668 5.69364 8.10853 5.67138 8.17906L2.5525 17.8561C2.5525 17.8561 1.69825 19.4091 7.90838 22.825C14.1185 26.241 14.9728 24.688 14.9728 24.688L21.4759 16.8725C21.5235 16.816 21.5523 16.7459 21.5582 16.6722C21.564 16.5985 21.5467 16.5248 21.5086 16.4614C21.4704 16.398 21.4134 16.3482 21.3456 16.3189C21.2777 16.2896 21.2024 16.2822 21.1301 16.2978L15.2542 17.5587Z" fill="#FFE500"/>
<path d="M15.2542 17.5587L15.5694 9.55513C15.572 9.48937 15.5562 9.42415 15.5238 9.36684C15.4915 9.30956 15.4439 9.26241 15.3862 9.23067C15.3285 9.19894 15.2631 9.18392 15.1974 9.18727C15.1317 9.19064 15.0681 9.2122 15.014 9.24963L8.42314 13.8012L6.34192 8.16339C6.31643 8.094 6.26988 8.03427 6.20876 7.99267C6.14763 7.95107 6.07504 7.9296 6.00112 7.93132C5.92719 7.93305 5.85563 7.9579 5.79652 8.00229C5.73741 8.04668 5.69364 8.10853 5.67138 8.17906L2.5525 17.8561C2.5525 17.8561 1.69825 19.4091 7.90838 22.825C14.1185 26.241 14.9728 24.688 14.9728 24.688L21.4759 16.8725C21.5235 16.816 21.5523 16.7459 21.5582 16.6722C21.564 16.5985 21.5467 16.5248 21.5086 16.4614C21.4704 16.398 21.4134 16.3482 21.3456 16.3189C21.2777 16.2896 21.2024 16.2822 21.1301 16.2978L15.2542 17.5587Z" fill="#FFE500"/>
<path d="M21.5078 16.461C21.4696 16.3979 21.4127 16.3482 21.345 16.3191C21.2773 16.2898 21.2022 16.2824 21.1301 16.2978L15.2542 17.5587L15.5694 9.55513C15.572 9.48937 15.5562 9.42415 15.5238 9.36684C15.4915 9.30956 15.4439 9.26241 15.3862 9.23067C15.3285 9.19894 15.2631 9.18392 15.1974 9.18727C15.1317 9.19064 15.0681 9.2122 15.014 9.24963L8.42314 13.8012L6.34192 8.16339C6.31643 8.094 6.26988 8.03427 6.20876 7.99267C6.14763 7.95107 6.07504 7.9296 6.00112 7.93132C5.92719 7.93305 5.85563 7.9579 5.79652 8.00229C5.73741 8.04668 5.69364 8.10853 5.67138 8.17906L2.5525 17.8561C2.5525 17.8561 1.69825 19.4091 7.90838 22.825C14.1185 26.241 14.9725 24.6878 14.9725 24.6878L21.4759 16.8725C21.5235 16.8159 21.5522 16.7456 21.5579 16.6719C21.5636 16.598 21.5461 16.5243 21.5078 16.461ZM14.1794 23.9025C13.902 23.9617 12.4968 24.0774 8.44535 21.8488C4.3939 19.6203 3.73894 18.3714 3.64073 18.1055L5.81113 11.3708C5.82894 11.3158 5.86345 11.2677 5.90982 11.2332C5.95618 11.1988 6.01215 11.1796 6.06994 11.1783C6.1277 11.1771 6.18443 11.1939 6.23225 11.2263C6.28002 11.2589 6.31654 11.3054 6.33663 11.3596L7.75203 15.1938C7.76667 15.2336 7.79024 15.2696 7.82098 15.2988C7.85159 15.328 7.88857 15.3499 7.92899 15.3627C7.96946 15.3754 8.01221 15.3788 8.05415 15.3724C8.09604 15.3661 8.13597 15.3503 8.17088 15.3262L13.9412 11.3418C13.9837 11.3125 14.0335 11.2955 14.0851 11.2929C14.1366 11.2903 14.1878 11.3021 14.2331 11.327C14.2783 11.3518 14.3157 11.3888 14.3411 11.4337C14.3665 11.4787 14.3788 11.5299 14.3768 11.5814L14.1008 18.5884C14.0992 18.6308 14.1073 18.6729 14.1244 18.7116C14.1415 18.7504 14.1673 18.7847 14.1998 18.812C14.2322 18.8392 14.2704 18.8587 14.3116 18.8689C14.3527 18.8791 14.3956 18.8799 14.437 18.871L18.4333 18.0139C18.4898 18.0018 18.5487 18.0076 18.6018 18.0306C18.6548 18.0535 18.6994 18.0925 18.7293 18.1419C18.7591 18.1914 18.7729 18.249 18.7685 18.3067C18.7641 18.3643 18.7419 18.4192 18.7049 18.4636L14.1794 23.9025Z" fill="#FFF48C"/>
<path d="M3.04235 16.3318L2.55079 17.8544C2.55079 17.8544 1.69653 19.4074 7.90665 22.8233C14.1168 26.2393 14.971 24.6863 14.971 24.6863L15.9938 23.4559C15.1471 23.5835 13.2138 23.3148 8.93129 20.9592C4.64877 18.6035 3.38791 17.1152 3.04235 16.3318Z" fill="#EBCB00"/>
<path d="M3.84778 17.4405C3.5149 17.1202 3.24036 16.7444 3.03649 16.3298L2.54493 17.8524C2.54493 17.8524 2.24697 18.3941 3.28205 19.541L3.84778 17.4405Z" fill="#FFE500"/>
<path d="M13.3767 25.0022C14.6967 25.1707 14.9634 24.6857 14.9634 24.6857L15.9862 23.4553C15.5637 23.5028 15.1362 23.4796 14.7213 23.3866L13.3767 25.0022Z" fill="#FFE500"/>
<path d="M3.04235 16.3318C3.38791 17.1152 4.64979 18.6044 8.93231 20.9601C13.2148 23.3158 15.1483 23.5841 15.995 23.4566" stroke="black" stroke-width="0.446066" stroke-linecap="round" stroke-linejoin="round"/>
<path d="M15.2542 17.5587L15.5694 9.55513C15.572 9.48937 15.5562 9.42415 15.5238 9.36684C15.4915 9.30956 15.4439 9.26241 15.3862 9.23067C15.3285 9.19894 15.2631 9.18392 15.1974 9.18727C15.1317 9.19064 15.0681 9.2122 15.014 9.24963L8.42314 13.8012L6.34192 8.16339C6.31643 8.094 6.26988 8.03427 6.20876 7.99267C6.14763 7.95107 6.07504 7.9296 6.00112 7.93132C5.92719 7.93305 5.85563 7.9579 5.79652 8.00229C5.73741 8.04668 5.69364 8.10853 5.67138 8.17906L2.5525 17.8561C2.5525 17.8561 1.69824 19.4091 7.90838 22.825C14.1185 26.241 14.9728 24.688 14.9728 24.688L21.4759 16.8725C21.5235 16.816 21.5523 16.7459 21.5582 16.6722C21.564 16.5985 21.5467 16.5248 21.5086 16.4614C21.4704 16.398 21.4134 16.3482 21.3456 16.3189C21.2777 16.2896 21.2024 16.2822 21.1301 16.2978L15.2542 17.5587Z" stroke="black" stroke-width="0.7" stroke-linecap="round" stroke-linejoin="round"/>
<path d="M21.8436 11.38C21.978 11.2297 22.1518 11.1202 22.3452 11.064C22.5388 11.0077 22.7442 11.007 22.9381 11.0619L24.5345 11.514C24.5637 11.522 24.5947 11.5199 24.6226 11.5081C24.6505 11.4963 24.6735 11.4755 24.6881 11.4489C24.7027 11.4224 24.708 11.3917 24.7031 11.3619C24.6981 11.332 24.6832 11.3047 24.6608 11.2843L23.4242 10.1781C23.274 10.0437 23.1646 9.86994 23.1084 9.67639C23.0522 9.48289 23.0516 9.27746 23.1064 9.08353L23.5589 7.48676C23.5669 7.45755 23.5648 7.4265 23.553 7.39862C23.5413 7.37075 23.5204 7.34765 23.4939 7.33304C23.4673 7.31843 23.4367 7.3132 23.4068 7.31819C23.377 7.32318 23.3497 7.33808 23.3293 7.36047L22.2232 8.5977C22.0888 8.74797 21.9149 8.85744 21.7213 8.91364C21.5278 8.96987 21.3223 8.97056 21.1285 8.91565L19.5322 8.46326C19.503 8.45524 19.472 8.45731 19.4441 8.46909C19.4162 8.48092 19.3931 8.50177 19.3785 8.5283C19.3639 8.55484 19.3587 8.5855 19.3636 8.61534C19.3686 8.64523 19.3835 8.67254 19.4059 8.69292L20.6425 9.79915C20.7927 9.93352 20.9021 10.1074 20.9582 10.301C21.0144 10.4946 21.0151 10.7001 20.9601 10.894L20.5074 12.4906C20.4994 12.5198 20.5014 12.5509 20.5132 12.5787C20.5249 12.6066 20.5458 12.6297 20.5723 12.6443C20.5989 12.6589 20.6296 12.6642 20.6594 12.6592C20.6892 12.6542 20.7166 12.6393 20.7369 12.6169L21.8436 11.38Z" fill="#FFF48C" stroke="#B58B00" stroke-width="0.446066" stroke-linecap="round" stroke-linejoin="round"/>
<path d="M9.98962 6.63573C10.0963 6.51639 10.2343 6.42944 10.3881 6.3848C10.5417 6.34016 10.7049 6.33964 10.8588 6.38328L12.1256 6.7421C12.1489 6.74891 12.1737 6.74757 12.1961 6.73831C12.2185 6.72906 12.237 6.71244 12.2487 6.69121C12.2604 6.66998 12.2645 6.64541 12.2603 6.62155C12.2562 6.59769 12.244 6.57597 12.2258 6.55997L11.2442 5.68204C11.1248 5.57541 11.0379 5.43734 10.9933 5.28363C10.9487 5.12992 10.9483 4.96675 10.992 4.81276L11.351 3.54644C11.3575 3.52327 11.3559 3.4986 11.3466 3.47643C11.3372 3.45427 11.3207 3.4359 11.2996 3.42431C11.2786 3.41273 11.2542 3.40859 11.2305 3.41258C11.2068 3.41657 11.1851 3.42844 11.169 3.44629L10.2913 4.42769C10.1847 4.5472 10.0466 4.63427 9.89292 4.67891C9.73918 4.72356 9.57599 4.72399 9.42205 4.68014L8.15557 4.32148C8.1324 4.31505 8.10774 4.31663 8.08558 4.32596C8.06341 4.3353 8.04504 4.35185 8.03345 4.37292C8.02186 4.394 8.01772 4.41837 8.0217 4.44209C8.02568 4.46581 8.03755 4.48748 8.05539 4.50361L9.03641 5.38122C9.15576 5.48783 9.24272 5.62589 9.28732 5.77961C9.33191 5.93334 9.33235 6.09652 9.28859 6.2505L8.92934 7.51786C8.92253 7.54112 8.92387 7.566 8.93311 7.58839C8.94235 7.61078 8.95896 7.62935 8.98018 7.64102C9.0014 7.6527 9.02598 7.65678 9.04983 7.6526C9.0737 7.64841 9.09542 7.63622 9.11141 7.61802L9.98962 6.63573Z" fill="#FFF48C" stroke="#B58B00" stroke-width="0.446066" stroke-linecap="round" stroke-linejoin="round"/>
<path d="M24.4251 23.5463C24.5112 23.4503 24.6226 23.3803 24.7466 23.3443C24.8706 23.3084 25.002 23.3079 25.1262 23.3429L26.1522 23.6335C26.171 23.6386 26.1909 23.6374 26.2089 23.6297C26.2268 23.6222 26.2417 23.6088 26.2511 23.5917C26.2605 23.5747 26.2638 23.5549 26.2606 23.5357C26.2574 23.5165 26.2478 23.499 26.2334 23.4859L25.4393 22.7738C25.3428 22.6874 25.2725 22.5757 25.2364 22.4514C25.2003 22.327 25.1998 22.195 25.235 22.0704L25.5259 21.0446C25.5311 21.0258 25.5298 21.0059 25.5222 20.988C25.5147 20.97 25.5013 20.9551 25.4842 20.9457C25.4672 20.9364 25.4474 20.933 25.4282 20.9363C25.409 20.9394 25.3915 20.949 25.3784 20.9634L24.6678 21.7584C24.5814 21.8549 24.4696 21.9251 24.3453 21.9612C24.2209 21.9973 24.0889 21.9977 23.9644 21.9625L22.9391 21.6719C22.9203 21.6667 22.9004 21.668 22.8824 21.6756C22.8645 21.6831 22.8496 21.6966 22.8402 21.7136C22.8309 21.7307 22.8275 21.7504 22.8307 21.7696C22.8339 21.7889 22.8435 21.8064 22.8579 21.8195L23.6521 22.5301C23.7486 22.6164 23.8189 22.7281 23.855 22.8524C23.8911 22.9767 23.8915 23.1088 23.8561 23.2333L23.5653 24.2596C23.5601 24.2784 23.5614 24.2983 23.569 24.3162C23.5765 24.3342 23.59 24.3491 23.607 24.3584C23.624 24.3678 23.6438 24.3712 23.663 24.3679C23.6822 24.3647 23.6997 24.3551 23.7128 24.3407L24.4251 23.5463Z" fill="#FFF48C" stroke="#B58B00" stroke-width="0.446066" stroke-linecap="round" stroke-linejoin="round"/>
</svg>
